<?xml version="1.0" encoding="utf-8"?>
<!-- Generator: Adobe Illustrator 19.2.1, SVG Export Plug-In . SVG Version: 6.00 Build 0)  -->
<svg version="1.1" id="Layer_1" xmlns="http://www.w3.org/2000/svg" xmlns:xlink="http://www.w3.org/1999/xlink" x="0px" y="0px"
	 viewBox="0 0 1923.9 10181" style="enable-background:new 0 0 1923.9 10181;" xml:space="preserve">
<style type="text/css">
	.st0{fill:#212122;}
	.st1{fill:none;}
	.st2{fill:#272727;}
</style>
<title>Hong_Kong_Map</title>
<rect class="st0" width="1923.9" height="10181"/>
<path class="st1" d="M580.8,2455L580.8,2455l0.1-0.6L580.8,2455z"/>
<path class="st1" d="M692.5,10041.5c0.9-0.3,1.8-0.6,2.8-0.9C696.8,10040.2,696.9,10040.1,692.5,10041.5z"/>
<path class="st1" d="M690.4,10042.3c0.7-0.3,1.4-0.5,2.1-0.8C688.8,10042.8,689,10042.7,690.4,10042.3z"/>
<path class="st1" d="M446.5,5615.4L446.5,5615.4z"/>
<path class="st2" d="M580.3,968.3V668.2H441.3v304C487.6,971,534,969.7,580.3,968.3z"/>
<path class="st2" d="M444.1,998.9l-2.8,0.1v284h138.9V995.1C534.9,996.4,489.5,997.7,444.1,998.9z"/>
<polygon class="st2" points="443.3,1619.2 582.3,1619.2 580.3,1309.6 441.3,1309.6 "/>
<path class="st2" d="M627.7,967c36.8-1.1,73.6-2.1,110.3-3V668.2H607.1v299.4L627.7,967z"/>
<path class="st2" d="M607.1,994.3V1283H738V990.8C694.4,991.9,650.7,993,607.1,994.3z"/>
<polygon class="st2" points="609.1,1619.2 740,1619.2 738,1309.6 607.1,1309.6 "/>
<polygon class="st2" points="766.7,1619.2 950.4,1619.6 950.4,1304.3 764.8,1305 "/>
<path class="st2" d="M950.5,961.1v-293H764.8v295.3C826.7,962.1,888.6,961.2,950.5,961.1z"/>
<path class="st2" d="M771.3,990.1l-6.5,0.2v301.4h185.6l0.1-155.8V987.9C890.8,988,831,988.8,771.3,990.1z"/>
<rect x="440.1" y="1678.6" class="st2" width="130.3" height="207.7"/>
<rect x="597.3" y="1678.6" class="st2" width="136.9" height="207.7"/>
<rect x="760.9" y="1678.4" class="st2" width="189.6" height="207.7"/>
<rect x="440.1" y="1913" class="st2" width="294" height="97.6"/>
<rect x="440.1" y="2037.2" class="st2" width="294" height="127.1"/>
<polygon class="st2" points="760.9,2164.3 889.5,2164.3 950.4,2009.6 950.4,1913.9 760.9,1913 "/>
<path class="st2" d="M442.1,2486.7c44-0.7,88-2.1,132.1-3.3v-0.1c0.1-0.1,0.1-0.3,0.2-0.5c0,0.1,0,0.1,0,0.2l3.2-14l0,0v-0.1
	l3.1-13.6l0.1-0.3v0.1l0.1-0.6l-0.1,0.6c0.7-2.7,1.2-5.2,1.7-7.3c-0.3,1-0.6,2.2-0.8,3.5c13.8-60.6,27.7-121.4,40.7-182.4V2197
	H442.1V2486.7L442.1,2486.7z"/>
<polygon class="st2" points="712,2215.9 950.4,2404.3 950.4,2197 712,2197 "/>
<path class="st2" d="M654.7,2247.1c-16.8,78.8-34.8,157.2-52.9,235.7c106.8-2.7,241.7-4.9,348.7-5.2v-37.1l-249.1-193.5H654.7z"/>
<path class="st2" d="M735.3,2851.8v-345.3c-44.9,0.8-90,1.9-134.9,2.9V2852h134.9V2851.8L735.3,2851.8z"/>
<path class="st2" d="M774.5,2505.8C823.9,2505,770.4,2505.8,774.5,2505.8L774.5,2505.8z"/>
<path class="st2" d="M950.5,2504.4c-49.3,0-126.7,0.5-176,1.3c-4.1,0.1-8.3,0.1-12.4,0.3v346.1h188.4L950.5,2504.4L950.5,2504.4z"/>
<rect x="442.7" y="2883.1" class="st2" width="129.6" height="151.7"/>
<rect x="599.1" y="2883.1" class="st2" width="134.9" height="151.7"/>
<rect x="442.7" y="3061.5" class="st2" width="129.6" height="249.9"/>
<rect x="599.1" y="3061.5" class="st2" width="134.9" height="249.9"/>
<rect x="760.8" y="2883.1" class="st2" width="189.7" height="158.4"/>
<rect x="760.8" y="3054.9" class="st2" width="189.7" height="256.5"/>
<rect x="442.1" y="3348.5" class="st2" width="132.8" height="538.3"/>
<rect x="601.7" y="3348.5" class="st2" width="133.6" height="538.3"/>
<rect x="762.1" y="3348.5" class="st2" width="188.4" height="288.4"/>
<rect x="762.1" y="3650.2" class="st2" width="188.4" height="236.5"/>
<rect x="442.1" y="3913.5" class="st2" width="184.9" height="260.7"/>
<rect x="653.9" y="3913.5" class="st2" width="81.5" height="260.7"/>
<rect x="762.1" y="3913.5" class="st2" width="188.4" height="260.7"/>
<path class="st2" d="M550.9,6342.9c25.7-4.5,51.6-8.9,77.5-12.7v-169.5h-77.5V6342.9z"/>
<rect x="550.9" y="5849.3" class="st2" width="77.5" height="284.7"/>
<path class="st2" d="M790.1,5849.3H655.2v477.5c44.8-4.9,89.9-5.5,134.9-5.7L790.1,5849.3L790.1,5849.3z"/>
<path class="st2" d="M950.5,5849.3H816.9v471.7c35.2-0.1,98.4-0.4,133.6-2.8L950.5,5849.3L950.5,5849.3z"/>
<path class="st2" d="M593.2,4572.2c-18.7,2.4-36.3-8.3-39.3-27.2h-90c0.1,0.4,0.2,0.9,0.1,1.3l-0.1,276.8
	c18.9,4.5,33.2,17.1,32.5,37.2h332.4v-269.9H637.3C616.9,4590.5,597.7,4581,593.2,4572.2z"/>
<rect x="842.3" y="4590.5" class="st2" width="108.3" height="270"/>
<path class="st2" d="M464.1,4902.4v85.7c24.4-14,52.3-20.9,80.1-25.1c54.3-8.1,107.7-14.4,158.3,11.3c43.1,22,75.7,54.9,126.4,58.3
	v-158.8H496.3C494.4,4891.4,481.9,4897.8,464.1,4902.4z"/>
<path class="st2" d="M607.2,4969.3c-41.2,2.8-85.9,6.9-124,24.1c0,10.5,3.3,48.3,5.2,57.9c5.1,25.7,12.9,22.7,37.9,20.7
	c-1.9-10.3-6.3-19.9-8.1-30.1C509.2,4994.2,610.4,5020,607.2,4969.3z"/>
<path class="st2" d="M829.6,5167.2c-0.5-0.5-0.7-1.3-0.7-2v-119.1c-78.7-4.9-127.6-80.9-208.4-77.5c2.8,15.6-6,28.8-18.5,36.9
	c8.3,1.3,26.1,9.2,34.3,4.3c8.7-5.3,2.7-15.3,8.8-19.9c9.7-7.2,47.7,19.1,59.6,26c8.7,5.1,48.4,30.8,19.5,29.7
	c-5.7-0.3-21.3-15.6-28-19.5c-13.2-7.6-27.2-13.7-40.3-21.6c-3.9,17.5-18.1,19.7-33.3,18.5c-7.3-0.5-35.3-2.3-37.3-9.2
	c-11.5,4.4-44.5,6.1-52,17.5c-6.5,9.9,8.3,40.1,26.8,127.9c1.7,8.3,36.5-8.8,43.3-2.9c14.4-4,44.5,32.1,55.9,38.5
	c3.1-3.1,11.9-13.5,17.5-12.3c1.1-1,2.6-1.5,4.1-1.5h114.9c2.2-0.1,4.3,1,5.5,2.9c3.3,0,6.7,2.1,6.7,6.4v24.4
	C814.9,5200.1,819.3,5180.2,829.6,5167.2z"/>
<path class="st2" d="M950.5,5173.2c-25.6-0.8-76.5-3.4-104.5,0.4c6.3-1.1,15.1-2.8-4.3,0.7c-6,16.7-18.6,56.4-33.4,67.1v74.9
	c0,3.7-0.1,4.5-3.2,7.5s-42.8,8.5-48.9,10.5c-11.5,3.9-12.8,36.8-12.8,36.8v171.1c0.9,1.1,1.3,2.6,1.3,4v29.5h205.9V5173.2z"/>
<polygon class="st2" points="460,5518 574.9,5518 460,5403 "/>
<path class="st2" d="M785.5,5728.5l-10-10l-38.7-38.7l-148.5-148.5H460.1v205.9h334L785.5,5728.5z"/>
<polygon class="st2" points="950.4,5750.5 460,5750.5 460,5822.6 948.5,5822.6 "/>
<path class="st2" d="M676.5,5600.6C631.2,5555.4,699.1,5623.3,676.5,5600.6L676.5,5600.6z"/>
<path class="st2" d="M950.5,5588.9H739.3c-4.2-1.4-7.3-5-8-9.3v-6.7c-0.9-1.2-1.3-2.6-1.3-4v-152.4H598c-23.1,38.4-70,26.7-70-25.3
	h-61.2c69.9,69.7,139.8,139.6,209.7,209.5l67.9,67.9l5.7,5.7c8.5,1.7,40.1,36.7,45.6,44.4c1,0.7,1.8,1.7,2.3,2.8
	c4.3,4.4,9.1,8.4,13.1,13.1h139.5V5588.9L950.5,5588.9z"/>
<path class="st2" d="M460,5377.6h71.3c7.6-10.3,19.6-10,19.6-10v-74.1H460V5377.6L460,5377.6z"/>
<path class="st2" d="M564.5,5427.3c26.2-0.3,27.4-31,8.8-42.4c1.8,1,3.2,1.9-0.7-0.4c-2.6-1.5-1.8-1-0.5-0.3
	c-6.4-3.5-14.1-4.9-20.8-3.2C538.9,5395.6,540.1,5427.6,564.5,5427.3z"/>
<path class="st2" d="M460,5280.1h155.2c-0.3-10.3-6-33.5-39.1-33.5H460v4c0.4,1.8,0.4,3.7,0,5.5V5280.1z"/>
<path class="st2" d="M950.5,4873.8H842.3v286.7c26.6-3.9,81.6-1.3,108.3-0.8L950.5,4873.8L950.5,4873.8z"/>
<path class="st2" d="M950.5,4332.5h-285c0,0-5.9,55.1-6.7,69.2c-1.1,19.3-1.6,43.5,8.9,60.7c10.9,18,25.1,18.4,44.6,15.5
	c10.8-1.6,44.2-16.3,44.6,4.1c0.3,12.5-43.9,16.4-52.6,17.1c-23.8,1.6-41.4-4.8-53.4-25.9c-11.1-19.5-13.1-43.6-12.4-65.5
	c0.5-18.4,9.9-75.2,9.9-75.2h-46.2v177.7c20.5,11.1,27.3,44.4,4.8,57.3c5.2,6.5,12.1,9.5,23.3,9.5c0.7-0.3,320.1,0,320.1,0
	L950.5,4332.5L950.5,4332.5z"/>
<path class="st2" d="M621.3,6358.1C624.1,6357.6,596.8,6361.7,621.3,6358.1L621.3,6358.1z"/>
<path class="st2" d="M548.3,6597.7h81.5v-240.9c-2.8,0.4-5.6,0.8-8.4,1.3c-24.4,3.6-48.7,8-73.1,12.3L548.3,6597.7L548.3,6597.7z"/>
<path class="st2" d="M656.5,6597.7h82.8v-249.1c-27.7,0.7-55.3,2.1-82.8,4.9V6597.7L656.5,6597.7z"/>
<path class="st2" d="M774.7,6348.1C823.9,6347.9,771.7,6348.1,774.7,6348.1L774.7,6348.1z"/>
<path class="st2" d="M950.5,6345.1c-49.2,3.3-126.7,2.8-175.9,3.1h-8.5v249.6h184.4L950.5,6345.1L950.5,6345.1z"/>
<path class="st2" d="M525.7,6844.9h104v-220.4H522.8v133.3C526.9,6787.2,524.8,6815.6,525.7,6844.9z"/>
<rect x="656.5" y="6624.5" class="st2" width="82.8" height="220.5"/>
<rect x="766.1" y="6624.5" class="st2" width="184.4" height="220.5"/>
<path class="st2" d="M950.5,6886.4H813.9c-27.9,54.7-79.6,103.9-140.4,118.4c5.6,17.9,16.4,33.6,25.3,50h251.7V6886.4z"/>
<path class="st2" d="M531.1,6886.4c18.8,37.7,43.3,85.6,88.5,95.1c49.6,10.3,96.4-19.8,130.1-52.8c-1.4,1.4-1.4,1.4,2.7-2.7
	s4-4,2.7-2.7c10.9-11.2,20.8-23.2,28.5-36.9H531.1z"/>
<path class="st2" d="M950.5,7246.1v-178H705.5c29.9,66.9-52.1,116.8-77.5,172.8C628,7240.9,830.1,7251.9,950.5,7246.1z"/>
<polygon class="st2" points="917.6,8682.3 950.5,8716.6 950.5,8664.3 "/>
<polygon class="st2" points="894.5,8696.7 586.5,8903.4 689.6,9041.5 950.5,8808.3 950.5,8755.1 "/>
<polygon class="st2" points="978,8783.8 977.2,8782.9 977.2,8784.5 "/>
<path class="st2" d="M803.9,9279.7l91.2-91.5c0.1-0.1-106.7-101.1-154.9-156.4l-112.4,91.1l85.6,156.8H803.9z"/>
<path class="st2" d="M462.3,9321.1C471.6,9336.6,461.2,9319.3,462.3,9321.1L462.3,9321.1z"/>
<path class="st2" d="M509.9,9413c6.1,51.5,5.7,103.3,13.2,154.7c8.3,56.8,20.9,113,37.9,167.9c28,90.7,66.5,213.1,170.4,240.7V9336
	h-73.9C608.8,9362.7,559.2,9387.7,509.9,9413z"/>
<path class="st2" d="M690.4,10042.3l4.9-1.6c-0.9,0.3-1.8,0.6-2.8,0.9C691.8,10041.8,691.1,10042,690.4,10042.3z"/>
<path class="st2" d="M675.2,10074.2c-4.3,18.3,10.3,54.3,15.2,71.7H730v-100.3C710.4,10051.3,680.5,10051.4,675.2,10074.2z"/>
<polygon class="st2" points="760.8,10038.5 760.8,10075.5 950.5,10048.3 950.5,10008.2 812.7,10008.2 "/>
<polygon class="st2" points="760.8,10118.5 950.5,10117.5 950.5,10061.8 760.8,10087.8 "/>
<path class="st2" d="M898.9,9219.8c-36.3,36.8-72.4,73.8-108.3,110.9v21.3h159.9v-132.4h-51.6V9219.8z"/>
<path class="st2" d="M768.7,9378.7c-0.9,0-1.8-0.1-2.7-0.3v167.3h184.5v-167.1H768.7z"/>
<polygon class="st2" points="766.1,9785 950.5,9783.7 950.5,9592.6 766.1,9591.1 "/>
<path class="st2" d="M766.1,9981.5h184.4v-171.1H766.1V9981.5z"/>
<polygon class="st2" points="950.5,9179.8 950.5,8864.7 759.9,9013.8 "/>
<path class="st1" d="M437.3,5517.8H0v13.3h437.3C445.9,5531.2,446,5517.8,437.3,5517.8z"/>
<path class="st1" d="M748.4,390.1H0v26.7h748.4C765.6,416.8,765.6,390.1,748.4,390.1z"/>
<path class="st1" d="M446.5,5615.4L446.5,5615.4z"/>
<path class="st2" d="M748.4,390.1c17.2,0,17.2,26.7,0,26.7H0v201.3l950.5,0.5V0H0v390.1H748.4z"/>
<path class="st2" d="M283.3,668.2H157.9v307.4c41.8,0.3,83.6,0.2,125.4-0.4L283.3,668.2L283.3,668.2z"/>
<path class="st2" d="M310.1,668.2v306.7c34.8-0.5,69.6-1.2,104.5-2V668.2H310.1z"/>
<path class="st2" d="M283.3,1002c-41.8,0.5-83.6,0.6-125.4,0.4V1283h125.4V1002z"/>
<path class="st2" d="M310.1,1001.6V1283h104.5V999.6C379.7,1000.4,344.9,1001.1,310.1,1001.6z"/>
<rect x="173.6" y="1309.6" class="st2" width="109.6" height="309.6"/>
<path class="st2" d="M129.3,668.2H0v307.4c41.8,0.3,87.5,0.2,129.3-0.4V668.2L129.3,668.2z"/>
<path class="st2" d="M129.3,1002c-41.8,0.5-87.5,0.6-129.3,0.4V1283h129.3V1002z"/>
<rect y="1309.6" class="st2" width="129.3" height="309.6"/>
<polygon class="st2" points="310.1,1619.2 416.5,1619.2 414.7,1309.6 310.1,1309.6 "/>
<path class="st2" d="M413.5,1886.3v-207.7H283.9v207.7H413.5L413.5,1886.3z"/>
<path class="st2" d="M249.7,1886.3v-207.7H120.1v207.7H249.7L249.7,1886.3z"/>
<path class="st2" d="M85.9,1886.3v-207.7H0v207.7H85.9z"/>
<path class="st2" d="M286.5,2010.6h126.9V1913H283.9v97.9C284.7,2010.7,285.6,2010.6,286.5,2010.6z"/>
<path class="st2" d="M122.7,2163.9h126.9V1913H120.1v251.6C120.9,2164.2,121.8,2163.9,122.7,2163.9z"/>
<path class="st2" d="M1.7,2163.9h84.2V1913H0v251.6C0.5,2164.2,1.1,2164,1.7,2163.9z"/>
<path class="st2" d="M413.5,2164.3v-127.1H286.5c-0.9,0-1.8-0.1-2.6-0.2v127.3L413.5,2164.3L413.5,2164.3z"/>
<path class="st2" d="M415.3,2487v-290H283.9v292.9C327.7,2487.7,371.5,2487.5,415.3,2487z"/>
<path class="st2" d="M250.6,2487v-290H119.1v292.9C162.9,2487.7,206.8,2487.5,250.6,2487z"/>
<path class="st2" d="M85.9,2487v-290H0v292.9C27.3,2487.7,58.5,2487.5,85.9,2487z"/>
<path class="st2" d="M573.6,2852.2v-342c-96.5,2.6-193.4,1.3-289.7,6.2v335.8L573.6,2852.2L573.6,2852.2z"/>
<path class="st2" d="M250.6,2852.1v-329.9c-82.2,2.5-168.5,1.2-250.6,6v323.9L250.6,2852.1L250.6,2852.1z"/>
<path class="st2" d="M250.6,3311.4v-428.3c-82.2,3.3-168.5,1.6-250.6,7.8v420.5H250.6z"/>
<path class="st2" d="M284.5,3034.9H416v-151.7H283.9v151.8L284.5,3034.9L284.5,3034.9z"/>
<path class="st2" d="M416,3311.4v-249.9H284.5c-0.2,0-0.5,0-0.7,0v249.9H416z"/>
<rect x="283.9" y="3348.5" class="st2" width="131.5" height="231.3"/>
<rect x="283.9" y="3606.6" class="st2" width="131.5" height="108.6"/>
<path class="st2" d="M186.9,3481.8c-1-1.9-1.5-4.1-1.5-6.3v-127H48v231.3h202.6v-84.9h-50.7C191.4,3494.9,187.1,3488.4,186.9,3481.8
	z"/>
<rect x="212.3" y="3348.5" class="st2" width="38.3" height="119.6"/>
<rect x="48" y="3606.6" class="st2" width="202.6" height="231.3"/>
<rect x="283.9" y="3913.5" class="st2" width="131.5" height="260.7"/>
<rect x="119.1" y="3913.5" class="st2" width="131.5" height="260.7"/>
<rect y="4202.4" class="st2" width="250.6" height="116.9"/>
<rect y="3913.5" class="st2" width="85.9" height="260.7"/>
<rect x="283.9" y="3728.3" class="st2" width="131.5" height="158.4"/>
<path class="st2" d="M290.2,6044.1c29.1,105.1,57.1,210.5,86.2,315.5c66.1-3.4,121.8-7.5,147.7-12v-498.3H235.5
	C254,5914.2,272.3,5979.1,290.2,6044.1z"/>
<path class="st2" d="M251.2,6003.9c-14.4-51.6-28.9-103.1-43.6-154.5H36.1c0,0.6,0,1.2,0,1.7c-1,101.5,10.1,202.8,25,303.1
	c10.6,71.7,23.2,143.1,34.8,214.6c72-1.1,168.4-3.9,253.1-7.9C316,6242,284.3,6122.7,251.2,6003.9z"/>
<path class="st2" d="M29.6,6121.7c-12.4-90.3-25.1-181.2-24.1-272.4H0v519.8c14.1,0.4,40.7,0.4,69,0.1
	C55.5,6286.8,40.9,6204.5,29.6,6121.7z"/>
<path class="st2" d="M130.1,4777.7H0v63.8l153.9,1.4C144.4,4821.8,135.9,4800.1,130.1,4777.7z"/>
<path class="st2" d="M450.7,4822.8v-45.1H338.4c-0.9,1.7-1.7,3.5-2.5,5.3c-7.5,17.2-13.4,37.2-14,56.1c-0.1,1.8-0.1,3.7,0,5.5
	l27.9,0.3C405.3,4836.9,395.1,4829.8,450.7,4822.8z"/>
<path class="st2" d="M310.9,4822.1c2.8-15.2,7.3-30.1,13.4-44.4H157.9c0.6,2,1.2,3.9,1.8,5.8c6.7,20.4,14.7,40.3,23.8,59.7
	l125.6,1.2C308.9,4836.9,309.5,4829.5,310.9,4822.1z"/>
<path class="st2" d="M119.8,4706.7c-2.2-45,2.8-92.9,23.5-133.5c5.1-10.1,11.5-19.6,18.9-28.1H0v219.2h127
	C123.1,4745.3,120.7,4726,119.8,4706.7z"/>
<path class="st2" d="M450.7,4729.7c-6-1.3-12.2-2.1-18.4-2.5c-19.5-1.2-41.5,0.5-58.8,10.4c-11.4,6.5-20.3,15.9-27.4,26.7h104.6
	V4729.7z"/>
<path class="st2" d="M384.1,4719c19-5.4,39.6-6.4,59.1-3.7c2.5,0.3,5,0.8,7.5,1.2v-170.2c0-0.4,0-0.9,0.1-1.3H203
	c-2.1,1.3-4.1,2.6-6.1,4c-1.1,0.8-3.3,2.6-1,0.7c-1,0.8-1.9,1.6-2.9,2.4c-1.8,1.5-3.5,3.1-5.2,4.7c-3.2,3.1-6.2,6.4-9,9.9
	c-0.3,0.3-1.1,1.4-1.5,1.9c-0.7,1-1.5,2.1-2.2,3.1c-1.3,2-2.6,4-3.9,6c-2.6,4.3-4.9,8.7-7,13.3c-0.6,1.3-1.2,2.7-1.8,4l0,0l-0.4,0.9
	c-0.9,2.3-1.8,4.7-2.7,7c-3.5,10-6.3,20.3-8.3,30.7c-0.5,2.7-1,5.5-1.5,8.3c-0.2,1.2-0.4,2.4-0.6,3.6c-0.1,0.7-0.3,2.5-0.4,2.8
	c-0.6,5.1-1.2,10.2-1.5,15.3c-1.6,21.7-1.2,43.4,1.3,65c0.2,1.5,0.3,3,0.5,4.5l0.2,1.9c0.1,0.7,0.4,2.6,0.4,2.9
	c0.2,1.1,0.3,2.3,0.5,3.4c0.8,4.9,1.6,9.7,2.6,14.5c0.6,2.8,1.2,5.5,1.8,8.3h176.6C342.8,4743.2,359.8,4725.9,384.1,4719z"/>
<path class="st2" d="M213.9,4955.5c-13-22.2-25.9-44.5-37.9-67.3H0v105.8h236C228.7,4981.2,221.4,4968.3,213.9,4955.5z"/>
<path class="st2" d="M358.6,4917.6c23.9,22.1,54.6,36.6,86.3,43.4c1.9,0.4,3.8,0.8,5.7,1.1v-55.5c-55.6-5.8-45.2-11.8-100.8-18.2
	H335C341.4,4899.2,349.3,4909,358.6,4917.6z"/>
<path class="st2" d="M428.2,4970.1c-43.1-12.4-87.6-41.6-107.9-81.9H206.4c16,29.3,33.3,57.8,49.8,86.8c3.6,6.3,7.1,12.6,10.7,19
	h183.8v-18.9C443.1,4974,435.6,4972.3,428.2,4970.1z"/>
<path class="st2" d="M161.5,4859.5l-0.6-1.2H0v16.7h169.1C166.5,4869.8,164,4864.7,161.5,4859.5z"/>
<path class="st2" d="M310.4,4858.3H190.7c2.8,5.6,5.6,11.1,8.5,16.7h115.4C312.7,4869.5,311.3,4863.9,310.4,4858.3z"/>
<path class="st2" d="M349.9,4874.9l92.8,17.4c12.3-0.1,39.6,0,39.6-27.7s-28.3-27.7-39.6-27.7l-92.8,21.4h-26.3
	c1.1,5.7,2.8,11.3,4.9,16.7H349.9z"/>
<path class="st2" d="M27.9,5197.7c6.5,13.8,12.4,27.8,17.9,41.9c89,0.5,286.2-0.1,303.7-0.2c32.5-0.3,64.8,3.5,97.2,3.9v-69.6
	c-0.4,0-0.9,0.1-1.3,0.1H15.8C20,5181.7,24.1,5189.6,27.9,5197.7z"/>
<path class="st2" d="M0,5209.5v29.5c2.1,0.1,10.5,0.3,17,0.4C12.9,5229.3,4.7,5219.3,0,5209.5z"/>
<path class="st2" d="M680.4,5194.6c-0.4,0-0.9,0-1.3-0.1c-4,3.6-19.2,23.1-25.7,12.7c-19.1-10.3-35.3-27.5-53.5-39.5
	c-13.2,2.1-30.5,6-43.7,5.3c-13.6,12.7-21.9,44.7-44,46.4c-16.9,1.3-26.1-17.6-21.5-33.5c9.9-34.3,9.7,11.9,14.3,16.3
	c14.5,14,32.8-30.9,42-38.7c-6.9-27.2-11.1-50.3-17.2-78.4c-24.8,1.1-39.6,8.3-51.6-17.9c-6.9-15.2-8-65.6-8-65.6
	s-11.1,5.7-14.1,5.7H274.2c12.8,23.6,25.2,47.3,37.2,71.3c12.5,24.7,39.7,75,39.7,75h94.2c12.9,0,14.7,0.4,14.7,10.1v72l128.1,0.2
	c24.4,1.5,41.5,22.1,40.4,46.9l0.1,10.5h-64.5c0,0-0.3,72.1-0.3,74.5c15.9,0,34.7,14.5,34.7,35.1h131.3v-17.3
	c0-13.9-0.9-50.7,8.9-58.7c14.3-11.6,38.1-9.7,55.2-12v-120.4L680.4,5194.6L680.4,5194.6z"/>
<path class="st2" d="M145.6,5084.6c-29.6,22.3-58.7,45.3-87.2,69.1h259.8c-15.4-32.9-31.5-65.3-48.4-97.5
	c-7.6-14.5-15.3-28.8-23.2-43.1C212.2,5036,178.6,5059.8,145.6,5084.6z"/>
<path class="st2" d="M38.2,5153.7c5.5-4.6,11-9.2,16.5-13.8c56.9-47,115.8-91.4,177-132.5H0v146.2l0.1,0.1L38.2,5153.7L38.2,5153.7z
	"/>
<path class="st2" d="M227.9,5822.6h218.8l-0.1-207.2l0,0l0,0c-0.4-0.4-0.8-0.8-1.1-1.3H166.1
	C187.3,5683.4,207.9,5752.9,227.9,5822.6z M446.5,5615.4L446.5,5615.4L446.5,5615.4z"/>
<path class="st2" d="M138.1,5614.1H0v208.5h200C179.9,5753,159.3,5683.5,138.1,5614.1z"/>
<path class="st2" d="M82.1,5348.2c3.5,11.6,7,23.2,10.6,34.8c13.8,45.1,28.5,89.9,43.1,134.8h301.6c8.7,0,8.5,13.3,0,13.3H140
	c6.9,21.3,13.7,42.7,20.3,64.1H440c2.6-0.1,5.1,1.5,6,4h0.7v-234.1c-3.1-0.5-6.3-1.2-9.3-2c-44.1-11.3-8.3-2.1-1-0.3
	C398.5,5353.3,198.7,5350.7,82.1,5348.2z"/>
<path class="st2" d="M55.1,5351.6l-1.3-4.1c-23.3-0.6-44.9-1.2-53.9-1.9v172.1h108C90.2,5462.5,72,5407.3,55.1,5351.6z"/>
<path class="st2" d="M121.2,5559.5c-3-9.5-6-18.9-9-28.4H0v64.1h132.3C128.6,5583.4,124.9,5571.4,121.2,5559.5z"/>
<path class="st2" d="M75.7,5327.4c101.2,1.4,272.9,2.5,293.9,4.6c18.3,1.7,77.1,14,77.1,14v-82.5c-44.5-0.4-282.1-0.7-393-2.8
	C61.6,5282.6,68.8,5305,75.7,5327.4z"/>
<path class="st2" d="M25,5259.9c-9.1-0.3-20.2-0.6-25-0.9v66.8c5.5,0.4,25.3,0.8,47.6,1.2C40.6,5304.5,33.3,5282,25,5259.9z"/>
<path class="st2" d="M553.9,4531.7c2-12.1,11.7-21.1,23.5-23.7c1.6-0.3,3.2-0.6,4.8-0.7v-174.7H0v199.1H553.9z"/>
<path class="st2" d="M950.5,4319.1v-116.8H761.8v54c0,17.2-26.7,17.2-26.7,0v-54h-77.4v58c0,17.2-26.7,17.2-26.7,0v-58h-81.4v59.3
	c0,17.2-26.7,17.2-26.7,0v-59.3h-78.7v59.3c0,17.2-26.6,17.2-26.6,0v-59.3H283.9v116.8H950.5z"/>
<path class="st2" d="M121.3,6679c-17.5-79.7-29-160.4-41.4-241H0v407h168.6C148.8,6791,133.6,6735.3,121.3,6679z"/>
<path class="st2" d="M465.1,6642.9c-9.9-36.5-15.7-74.5-30.7-109.5c-14.3-33.3-34.1-57.1-70.1-65.6c-26.4-6.3-62.9-4.9-80.4-29.9
	H106.8c0.7,5,1.5,10,2.2,15c12,82.2,25,164.4,44.1,245.3c11.7,49.7,25.9,99,44,146.8h299v-86.8
	C490.1,6718.4,475.5,6681.6,465.1,6642.9z"/>
<path class="st2" d="M302.9,6414c0,0.5,0,1.1,0.1,1.6c0.3,1.5,0.7,3.1,1.2,4.5c0.5,1.1,1.1,2.1,1.9,3.1c1.2,0.7,2.2,1.7,2.9,2.9
	c2.5,1.6,5.1,3.1,7.7,4.4c34.9,21.2,75.2,6.8,107.9,38.7c34.3,33.5,46.1,83.6,56.8,128.4h40v-222.5
	c-71.2,12.4-142.9,21.1-215.3,20.8C304.1,6401.7,303,6407.8,302.9,6414z"/>
<path class="st2" d="M527.3,7054.8v-42.1c-24.4-23.7-48.4-50.4-78.8-66.5H0v108.7L527.3,7054.8L527.3,7054.8z"/>
<path class="st2" d="M445.7,6932.7c2.1-0.9,4.6-0.8,6.7,0.3c0.7,0.2,1.3,0.5,1.9,0.9c30.8,16,62.1,44.1,84.1,70.8
	c1.5,1.2,2.3,3,2.3,4.9v44.9h142.7c-8.7-14.9-18.1-30.1-23.2-47.1c-84.4,13.7-126.9-54.8-158.9-121.1H0v46.3L445.7,6932.7
	L445.7,6932.7z"/>
<path class="st2" d="M555.6,7272.9c18.8-10.5,37.9-22.5,57.6-31.3c14.7-32.4,31.7-57.2,55.6-83.3c24.9-27.2,40.7-53.7,22-90.3H0
	l53.9,0.1l38,204.8L555.6,7272.9L555.6,7272.9z"/>
<path class="st2" d="M415.6,8814.2c35.3,11.3,63.9,40.8,92.5,63.5c15.9,12.5,25.6,27.3,42.5,21.1c26.9-10,55.9-41.1,79.3-57.9
	c78.7-56.1,159.6-109.2,241.2-160.8c8.5-5.4,40.4-26.4,79.3-50.2V7254.4c-103.2-0.1-330.7-0.4-330.7-0.4c-0.7,0.1-1.5,0.2-2.3,0.3
	c-16.9,9.2-53.6,31.7-56.8,31.7H80.9l-44-218H0v1729.4C42.7,8803.2,374.7,8801.1,415.6,8814.2z"/>
<path class="st2" d="M114.6,10021c-20.1-40.5-38.2-81.8-54.3-124.1c-8.2-21.6-16.1-43.4-23.8-65.2c-5.9-16.8-10.5-34.1-11.5-51.8
	c-10.3-3-22.6-6.1-28.9-9.3v248.9c2.6,0.4,5.2,1,7.7,1.5c16.3,3.3,62.9,6.6,115.9,10.3C118,10027.7,116.3,10024.4,114.6,10021z"/>
<path class="st2" d="M53.8,9794.6c4.6,22.4,13.9,43.6,21.4,65.1c7.3,20.8,15.2,41.5,23.6,61.9c15.6,38,33.1,75.2,52.1,111.6
	c117.8,7.8,267.1,16.6,300.1,27.5c51.7,17.1,98.1,38.6,147.1,68.1c-60.3-58.9-79.7-143.6-112.9-218.3
	c-31-69.6-304.9-94.7-432.7-123.8C52.8,9789.4,53.2,9792,53.8,9794.6z"/>
<path class="st2" d="M143.5,9191.8c-26.4-61.3-59.1-119.6-94.1-176.4c-14.8-24-33.9-47.8-49.3-71.4v286.8
	c20.3,4.6,90.4,10.3,165.1,16.7C158.6,9228.5,151.3,9210,143.5,9191.8z"/>
<path class="st2" d="M370.3,9130c-8-29.2-12.8-61.5-4.6-91.2c6.4-22.8,20-43,36.5-59.6c26.4-26.7,60.7-46.9,96.7-59.3
	c-26-25.3-53.5-51.2-81.6-68.9c-38.9-24.3-375.2-19.2-417.3-26.8v71.3c28.1,42.7,60.1,85.5,86.4,129.3c35,58.4,67,118.7,92,182.1
	c5.6,14.2,10.8,28.5,15.5,43c91.4,7.7,188,16.2,225.7,24.3c-6.7-16.8-13-33.7-19.1-50.7C389.7,9192.7,379,9161.5,370.3,9130z"/>
<path class="st2" d="M521.1,8941.4l-0.2-0.2l-0.4,0.1c-5.4,1.6-10.8,3.4-16.1,5.3c-5.7,2.1-9.6,3.7-13.7,5.5
	c-10.8,4.8-21.3,10.3-31.4,16.4c-9.5,5.7-18.6,12.3-27.1,19.5c-8.4,7.1-16.1,15.1-22.9,23.7c-0.1,0.1-1.5,2-1.8,2.4
	c-0.8,1.1-1.5,2.1-2.2,3.2c-1.6,2.3-3,4.7-4.4,7.1c-1.4,2.4-2.7,4.8-3.9,7.3c-0.5,1.1-1.1,2.3-1.6,3.4l-0.1,0.3
	c-0.2,0.4-0.3,0.8-0.5,1.2c-1.9,4.9-3.4,9.9-4.5,14.9c-0.3,1.4-0.6,2.9-0.8,4.3c0,0.2-0.1,0.8-0.2,1.2s-0.2,1.5-0.2,1.5
	c-0.3,3.7-0.6,7.5-0.7,11.2c-0.7,31.3,10,60.5,19.2,90c13.3,42.9,28.6,85.1,45.7,126.6c30.6,15.2,39.1,34.8,51.2,75.4
	c30-13.2,59.7-26.8,89.2-41.2c24.8-12.3,51.6-32.9,77.9-40c1.1-0.4,2.2-0.6,3.3-0.5c0.7-0.2,1.3-0.3,2-0.3h21.7L521.1,8941.4z"/>
<path class="st2" d="M172.6,9270.4c-79.1-4.5-157.8-8.7-172.6-12.4v118l195.7-1.5C191,9339.2,183.3,9304.3,172.6,9270.4z"/>
<path class="st2" d="M222.4,9374.3l257.4-2.1c0,0.1-8.3-35.6-17.6-51.1c-0.5-0.9-2.8-4.4-4.3-5.3c-19.5-14.4-56.4-20.5-79.2-28.5
	c-15.1-5.3-95.2-10.4-177.9-15.2C210.9,9305.5,218,9339.7,222.4,9374.3z"/>
<path class="st2" d="M322.8,9630.1c39.8,67.1,82.7,132.2,125,197.7c7.8,12.1,15.6,24.2,23.4,36.3c19.4,11.3,33.3,24.1,39.7,38.7
	c10.2,23.3,19.3,47.1,28.7,70.5c12.2,20.2,24,40.7,35.6,61.3c12.6,22.5,24.7,45.2,36.4,68.2c15.1,16.9,32.6,31.5,52,43.3h12.9
	c-9.7-36.6-31.1-87,13.9-103.7c-1.4,0.5-1.6,0.5,2.1-0.8c4.3-1.4,4.2-1.4,2.8-0.9c11.4-3.5,23.2-5.5,34.7-9v-28.5
	c-110.7-25.7-155.5-141.1-187.5-237.7c-37.5-113.2-46.7-224.9-58.4-342.5H217.3C246.9,9494.6,283.3,9563.4,322.8,9630.1z"/>
<path class="st2" d="M406.8,9813.7c-42.3-65.2-84.7-130.5-123.4-197.9c-35.7-62.2-67.9-126.4-94.9-192.9H-3.9v317.6
	c63.6,36.8,300.2,54.6,429.9,102.9L406.8,9813.7z"/>
<polygon class="st2" points="950.5,10144.3 762,10145.3 762.1,10181 950.5,10181 "/>
<path class="st2" d="M239.1,10181h439c-100.3-48.5-154.5-79.5-227-106.4c-41.2-15.3-181.2-25-294.5-30.6
	C181.8,10091,209.3,10136.7,239.1,10181z"/>
<path class="st2" d="M125.6,10042.5c-71.4-3.2-129.5-4.6-129.5-4.6v143.1H207C177.5,10136.3,150.3,10090,125.6,10042.5z"/>
<rect x="1510.4" y="10120.5" class="st2" width="133.5" height="60.5"/>
<polygon class="st2" points="1390.7,10128.5 1326,10128.5 1326,10181 1411.2,10181 "/>
<path class="st1" d="M1748.8,8556.8c-2.5,106.2,85.7,135.8,175.1,146.7v-27.2c-49.2-5.8-116.7-15.2-140-65.8
	c-23.7-51.2-3.4-129.8,31.5-171.6c-3.5,4.1-6,6.9,1.5-1.8c6.4-7.4,5.2-5.9,2.3-2.6c27.3-30.1,65.1-46.9,104.7-54.7v-27
	c-14.9,2.6-29.5,6.4-43.7,11.3C1797.3,8393.4,1750.7,8470.7,1748.8,8556.8z"/>
<path class="st2" d="M977.2,0v312.8l186.3-0.1V83.6c0-17.2,26.7-17.2,26.7,0v229.2h133.5v-230c0-17.2,26.7-17.2,26.7,0v229.9h135.6
	V85.6c0-17.2,26.7-17.2,26.7,0v227.2h131.3V0H977.2z"/>
<rect x="1512.5" y="668.2" class="st2" width="131.3" height="298"/>
<rect x="1672.9" y="668.2" class="st2" width="131.3" height="298"/>
<rect x="1844" y="668.2" class="st2" width="79.8" height="298"/>
<rect x="1672.9" y="994.3" class="st2" width="131.3" height="283.3"/>
<rect x="1844" y="994.3" class="st2" width="79.8" height="283.3"/>
<rect x="1672.9" y="1304.2" class="st2" width="131.3" height="315.1"/>
<rect x="1844" y="1304.2" class="st2" width="79.8" height="315.1"/>
<rect x="1672.9" y="1678.4" class="st2" width="131.3" height="438.8"/>
<rect x="1844" y="1678.4" class="st2" width="79.8" height="438.8"/>
<rect x="1512.5" y="993" class="st2" width="131.3" height="284.7"/>
<path class="st2" d="M1512.6,1304.3v36.1c0,2.5-0.6,5-2,7.2v271.7h133.3v-315.1H1512.6z"/>
<path class="st2" d="M1536.7,1883v285.5c0.5,0.1,1,0.3,1.5,0.5h105.7v-286H1536.7L1536.7,1883z"/>
<rect x="1536.5" y="1678.4" class="st2" width="107.3" height="177.7"/>
<path class="st2" d="M1755.7,2444.9c-3.1-82.9-7.9-165.9-20.4-247.9h-116.7v280.7h138.2C1756.5,2466.7,1756.1,2455.8,1755.7,2444.9z
	"/>
<path class="st2" d="M1762.3,2197c0.5,3.3,1,6.6,1.4,9.8c12.4,88.2,16.8,177.1,19.8,266c0.1,1.6,0.1,3.2,0.2,4.8h140.2V2197H1762.3z
	"/>
<rect x="1406.3" y="2504.3" class="st2" width="164.1" height="341.6"/>
<path class="st2" d="M1826.3,3252.7c-3.9-45.5-7.2-91-11.9-136.4c-4.7-44.9-10.3-89.7-16-134.4c-11.5-89.9-24.8-179.8-31.4-270.2
	c-5.1-69-7-138.2-9.2-207.3H1620v783.1h209.4C1828.4,3275.8,1827.4,3264.2,1826.3,3252.7z"/>
<path class="st2" d="M1784.5,2504.3c2.3,78.4,4,157.1,11.6,235.2c8.8,90.4,21.4,180.4,32.7,270.5c5.7,45.2,11,90.5,15.4,135.9
	c4.3,45,7.4,90.1,11.4,135.1c0.2,2.1,0.4,4.2,0.6,6.4h67.6v-783.1H1784.5z"/>
<rect x="1513.1" y="3648.3" class="st2" width="410.8" height="212.5"/>
<rect x="1513.1" y="3349" class="st2" width="130.8" height="272.7"/>
<path class="st2" d="M1867.1,3351.2c11.9,70.1,27.5,139.4,46.8,207.8c3.2,11.3,6.5,22.5,9.9,33.8V3349h-57.1
	C1866.9,3349.7,1867,3350.4,1867.1,3351.2z"/>
<path class="st2" d="M1881.4,3541.8c-17.1-63.5-30.8-127.9-41.6-192.8h-169.2v272.7h234.2
	C1896.3,3595.2,1888.6,3568.6,1881.4,3541.8z"/>
<rect x="1511.7" y="3913.5" class="st2" width="132.1" height="260.7"/>
<rect x="1670.6" y="3913.5" class="st2" width="107.9" height="260.7"/>
<path class="st2" d="M1796.1,5171c43.2-1.5,86-5.6,127.8-15.7v-953h-253.3V5170C1712.4,5171.4,1754.3,5172.5,1796.1,5171z"/>
<path class="st2" d="M1923.9,5308.9v-126.1c-12.1,2.7-24.3,5-36.5,6.9c-43.4,6.6-87.3,8.7-131.1,8.8v110.4L1923.9,5308.9
	L1923.9,5308.9z"/>
<path class="st2" d="M1745.8,5335.7c-8.3-1.5-14.9-8.1-16.4-16.4v-121c-15.4-0.2-30.9-0.6-46.3-1.1l-12.6-0.4v247.9
	c16.6-5,33.4-9.4,50.2-13.4c67.1-16,135.4-25.8,203.1-39v-56.6L1745.8,5335.7L1745.8,5335.7z"/>
<path class="st2" d="M1793.5,5684.3c43.3-13.1,86.7-26.3,130.3-38.3v-226.5c-84.7,16.2-170.8,27.7-253.3,53.2v247.9
	C1711.7,5709,1752.6,5696.7,1793.5,5684.3z"/>
<path class="st2" d="M1890.6,5683.3c-73.5,21.2-146.3,44.7-220,65.1v141.4h208.1C1884.9,5821.1,1889.1,5752.2,1890.6,5683.3z"/>
<path class="st2" d="M1917.6,5675.6c-1.3,71.5-5.6,142.9-12.1,214.2h18.4v-215.9L1917.6,5675.6z"/>
<path class="st2" d="M1876.1,5916.6h-205.5v130.6h190.2C1866.6,6003.7,1871.7,5960.2,1876.1,5916.6z"/>
<path class="st2" d="M1902.9,5916.6c-4.3,43.6-9.4,87.1-15.3,130.6h36.3v-130.6H1902.9z"/>
<rect x="1805.3" y="3913.5" class="st2" width="118.6" height="59.6"/>
<rect x="1805.3" y="3999.9" class="st2" width="118.6" height="174.3"/>
<path class="st2" d="M1510.8,4201.4v58.9c0,17.2-26.8,17.2-26.8,0v-58.9h-188.8v60.8c0,17.2-26.8,17.2-26.8,0v-60.8h-79.6v61.6
	c0,17.2-26.8,17.2-26.8,0v-61.6H977.2v235.3h135.9v-111.3c0-8.7,13.5-8.5,13.5,0v111.3h87.7v-110.5c0-8.7,13.5-8.5,13.5,0v110.5
	h101.1v-104.3c0-8.7,13.5-8.5,13.5,0v104.3h34.4v-111.3c0-17.2,26.8-17.2,26.8,0v41.1c0.9-0.3,1.8-0.5,2.7-0.5h35.7
	c2-0.1,3.9,0.8,5.2,2.4c1.6,1.2,2.5,3.1,2.4,5.1v63.2h194.4v-235.2L1510.8,4201.4L1510.8,4201.4z"/>
<path class="st2" d="M977.2,4463.6v404c110.9-2.3,245.7-16.2,350.7-52.9c105.2-36.8,205-82.1,316-99.7v-251.3H977.2z"/>
<path class="st2" d="M1332.3,4841.2c-106.1,37.2-242.9,50.5-355.1,53.3V5104c84-23.2,198.9-34,285.5-42.3c0-0.4-0.1-0.8-0.1-1.2
	v-90.9c0-3.5,2.8-6.4,6.3-6.4c0.2,0,0.4,0,0.7,0c20.5-14.4,56.9-18.3,81.6-23.5c32.7-6.8,65.7-11.2,98.9-14.8
	c64.3-6.7,129.2-10.6,193.9-12.5V4742C1534.7,4759.9,1436,4804.9,1332.3,4841.2z"/>
<path class="st2" d="M1616.3,4926.6h-0.4l-14.8,0.6c-107.9,4.5-221.8,9.6-323.6,47.4v85.7c122-11.1,244.4-16.9,366.4-28.9v-105.8
	C1634.7,4926,1625.5,4926.3,1616.3,4926.6z"/>
<path class="st2" d="M1542.2,5067.3c-49.5,4-98.9,7.1-148.4,10.4c13.9,39.7,28,79.5,38,120.5c69.3-17.7,140.4-29.8,212.1-28.6
	v-111.5C1610,5061.7,1576,5064.7,1542.2,5067.3z"/>
<path class="st2" d="M1338.4,5252.9c4.3,20,8.3,40,12.1,60c98.4-19.1,193.5-33,293.3-39.4v-77.1
	C1539.1,5194.5,1437.5,5222,1338.4,5252.9z"/>
<path class="st2" d="M1503.9,5311.7c-49.5,8.7-98.9,17.7-148.4,27.1c4,20.8,8.1,41.6,12.8,62.1c41.2-20.1,87.5-30.9,132.8-36.5
	c47.3-5.9,95.2-5.8,142.8-9.5v-54.6C1596.7,5303.3,1550.7,5303.5,1503.9,5311.7z"/>
<path class="st2" d="M1506.3,5377.2c-45.9,5.3-93.5,16.3-134.9,37.3c3.1,12.9,6.7,25.7,10.5,38.5c43.7-11.5,85.2-26,130.4-31.3
	c43.6-5.1,87.7-5.3,131.6-6.5v-47C1598,5371.8,1551.9,5371.8,1506.3,5377.2z"/>
<path class="st2" d="M1510.6,5448.8c-41.7,5.3-80.4,19.2-120.8,29.9c4.1,13.5,8.4,26.9,12.5,40.5c78.6-22,160.9-22.5,241.6-31.3
	V5442C1599.3,5443.2,1554.7,5443.1,1510.6,5448.8z"/>
<path class="st2" d="M1573.4,5508l-2.2,0.2c-55.9,4.9-110.7,8.8-165.1,23.7c6.3,20.1,13.2,40.1,23.5,58.5
	c70.8-15.1,142.1-30.7,214.3-37.2v-52C1620.4,5503.7,1597,5505.9,1573.4,5508z"/>
<path class="st2" d="M1543,5594.4c6-1.2,8.4-1.6-6.2,1.2c-10.4,2-10.2,2-6.5,1.3c-29.8,5.9-59.7,12.2-89.4,18.6V5721h202.9v-141
	C1610.1,5583,1576.4,5588.1,1543,5594.4z"/>
<path class="st2" d="M1455.2,5747.9L1455.2,5747.9l126.1,126.1c0.7,0.7,1.3,1.5,1.9,2.4c4.8,4.8,9.5,9.6,14.3,14.4h46.4v-142.9
	H1455.2z"/>
<path class="st2" d="M1592,5917.5c-3.8,0.2-7.4-1.5-9.9-4.4c-36.5-31.6-69.1-69.6-103.2-103.7l-52.4-52.4l-73.9,73.9
	c71.7,71.7,143.4,143.7,214.9,215.9h76.3v-129.2H1592L1592,5917.5z"/>
<path class="st2" d="M1398.4,6158.5c65.6-6.3,311.8-14,448.7-18.1c1.1-6.8,2.1-13.6,3.2-20.5c2.4-15.5,4.6-31,6.8-46.5h-293.2
	c-1.9,0-3.7-0.4-5.5-1.1c-17.5-3.5-41.1-38.4-53.2-50.8c-18.9-19.2-38-38.3-57.1-57.3c-38.1-38.1-76.3-76.3-114.4-114.5l-73.2,73.2
	c-19.1,19.1-42.9,55.3-67.1,65.7c-1.3,1.4-2.9,2.4-4.7,2.9v186.9c67.9-6.5,135.8-13,203.7-19.5
	C1394.4,6158.5,1396.4,6158.3,1398.4,6158.5z"/>
<path class="st2" d="M1884,6073.5c-3.1,22.1-6.4,44.1-9.8,66.1c21-0.6,38.1-1.1,49.7-1.5v-64.6H1884z"/>
<path class="st2" d="M1842.9,6167.2c-135,3.8-371.1,10.7-432.5,16.8v51.6h421C1835.3,6212.8,1839.1,6190,1842.9,6167.2z"/>
<path class="st2" d="M1869.9,6166.4c-1.8,11.2-3.6,22.4-5.5,33.5c-2,11.9-4,23.8-6.1,35.6h65.5v-70.7
	C1911.9,6165.2,1893.2,6165.8,1869.9,6166.4z"/>
<path class="st2" d="M1495.9,6625.7H1322c0.3,1.2,0.4,2.4,0.4,3.6V6746h69.1c7.8,0.7,14,6.9,14.7,14.7v71.1
	c3.6,4.4,7.1,9.1,10.9,13.2h47.1c33.3-14.8,153.4-67.5,263.7-115.7l1.3-5.4c35.4-153.2,69.5-306.8,97.4-461.6h-416.3v86.8
	c73.6-6.4,43.1,112.3,67.1,150.1c14.3,22.4,33.6,16.3,40.5-6.9c1.2-4-0.1-54.5,13.5-34.5c8.4,12.4-1.1,49.2-10.7,59.2
	c-16.8,17.6-41.2,11.1-53.5-8c-20.1-31.3-0.9-152.9-56.8-146.4v136.3c0,17.2-26.7,17.2-26.7,0v-37.9c-31.2-12.5-24.4,21.9-24.1,41.1
	c0.5,32.4-3.2,64.5-2,97.1h138.3C1513.1,6599.1,1513.1,6625.7,1495.9,6625.7z"/>
<path class="st2" d="M1853.6,6262.3c-27.2,152.1-60.5,303.1-95.2,453.7c75.6-32.9,141.8-61.7,165.4-71.5v-382.2H1853.6z"/>
<path class="st2" d="M1343.9,6886.4L1343.9,6886.4v218.7c0,17.2-26.7,17.2-26.7,0v-199.2c-19.3,8.4-41.5,4.9-61.3,11.9
	c-21.2,7.3-40.7,22.8-55.3,39.5c-6.8,60.5-40.7,132.9-77.7,181.2c-2.7,2.7-40.3,49.9-40.3,49.9s-20.7,27.7-30.7,43.7l141.7,141.7
	h450.3l280-319.2V6685l-454,201.4H1343.9z"/>
<path class="st2" d="M1819.1,8434.6c2.8-3.3,4.1-4.8-2.3,2.6c-7.4,8.6-5,5.8-1.5,1.8c-34.8,41.8-55.1,120.4-31.5,171.6
	c23.3,50.7,90.8,60.1,140,65.8V8380C1884.3,8387.7,1846.5,8404.5,1819.1,8434.6z"/>
<path class="st2" d="M1748.8,8556.8c1.9-86.1,48.5-163.5,131.3-192.5c14.2-4.9,28.9-8.7,43.7-11.3V7069l-280,318.5h-451.5
	c-0.4,0-0.7-0.3-1.1-0.3c-14.4,2.4-60.9-57.5-71.7-68.3l-76.4-76.4c-11.9,10.9-27.6,11.5-42.8,11.9c-0.9,0-9.3,0-23.2,0v1359.4
	c70.9-42,152-83.7,159.9-59.9l211.3,211.3h575.4v-61.7C1834.5,8692.6,1746.3,8663,1748.8,8556.8z"/>
<path class="st2" d="M1347.5,8792v74.8h576.4V8792H1347.5z"/>
<path class="st2" d="M1296.7,8893.8v152.4c56.7,2.7,112.9,1.3,169.2-7.2c59.6-9.1,118.4-4.5,178-10.5v-134.7H1296.7z"/>
<path class="st2" d="M1742.3,9879.1c11.4,13.7,22.2,27.9,33.5,41.6c12.3,14.9,25.3,29.1,37.7,43.9c37.6,44.5,74.1,90,110.3,135.8
	v-25.5c-10-32.2-20.7-64.2-32.1-95.9c-20.3-56.2-42.8-110.6-69.4-164.1c-23.8-48.2-50.9-94.6-81.1-139c-21.7,31.5-44,62.6-66.1,93.9
	v39.4C1699.9,9830,1721.7,9854.2,1742.3,9879.1z"/>
<path class="st2" d="M1778.4,9964.5c-12-14-24-27.9-35.5-42.3c-11.8-14.8-23.8-29.5-36.3-43.8c-10.1-11.5-20.5-22.8-31.5-33.4v336
	h248.7v-37.7C1876.3,10083,1828.5,10022.8,1778.4,9964.5z"/>
<path class="st2" d="M1814.3,9032.8c16.7-10.8,33.7-21.2,50.8-31.4c19.5-11.7,39.2-23.1,58.8-34.5v-73.1h-248.7v129.5
	c23.1,1,46,5.2,67.4,14.5c12.2,5.3,23.5,12.5,33.6,21.1C1788.1,9049.2,1801.4,9041.2,1814.3,9032.8z"/>
<path class="st2" d="M1880.3,9023.6c-17.1,10.2-34.1,20.6-50.8,31.4c-11.5,7.4-23.6,14.5-34.4,23c3.9,4.6,7.5,9.4,10.9,14.4
	c18.5,27.3,30.2,59.1,39.3,90.6c12.5,43.4,20.5,88,23.9,133c3,40.8,0.8,82-7.9,122c-8.9,40.8-24.7,79.9-44.1,116.8
	c-17.7,33.7-38.4,65.9-59.7,97.5c3.3,4.7,6.5,9.3,9.7,14c33.6,49.5,62.9,101.9,88.6,155.9c25.9,54.3,48.3,110.3,68.2,167.1v-991.4
	C1909.3,9006.4,1894.7,9014.9,1880.3,9023.6z"/>
<path class="st2" d="M1724.6,9059.2c-3.1-1.1-6.2-2.1-9.4-3c-6.8-1.9-13.8-3.4-20.8-4.5l-1.6-0.2l-2.4-0.3c-1.9-0.2-3.7-0.4-5.6-0.5
	c-3.2-0.3-6.4-0.5-9.6-0.6v673.6c19-26.8,38-53.6,56.4-80.9c25.7-38.2,51-77,71-118.4c16.8-34.8,29.8-72.7,36.3-112.1
	c0.4-2.5,0.8-5.1,1.2-7.6c0.6-3.8,0.4-2.7,0.4-2.8c0.1-0.7,0.2-1.3,0.3-2c0.6-4.7,1.1-9.3,1.4-14c0.8-9.7,1.3-19.5,1.4-29.2
	c0.2-20.7-0.9-41.4-3.3-62c-1.2-10.3-2.4-19-4.3-29.8c-2-11.7-4.2-23.3-6.7-35c-4.1-19.4-9.2-38.5-15.4-57.3
	c-2.6-8-5.5-15.9-8.6-23.8c-0.5-1.2-1-2.4-1.5-3.7l-0.1-0.2c-0.8-1.8-1.5-3.5-2.3-5.3c-1.5-3.4-3.1-6.8-4.8-10.1
	c-3.3-6.6-7-13.1-11-19.4c-1.8-2.8-3.7-5.6-5.7-8.4c-0.4-0.6-2-2.6-2.2-2.9c-0.8-1-1.6-2-2.4-2.9c-4.3-5.1-8.9-10-13.8-14.5
	c-1.3-1.2-2.6-2.3-3.9-3.4c-0.4-0.3-2-1.6-2.7-2.2l-2.3-1.7c-1.3-0.9-2.5-1.8-3.8-2.6c-5.5-3.6-11.2-6.8-17.2-9.5
	c-0.9-0.4-1.7-0.8-2.6-1.2c3.3,1.5,0.3,0.1-0.3-0.1C1727.3,9060.2,1726,9059.7,1724.6,9059.2z"/>
<path class="st2" d="M1581.9,9056.8c-11.8-0.1-7.3,0-1.8,0c-26.4,0-75.8,2.9-75.8,2.9l24.1,117.1l115.5-1.2V9055
	C1623.3,9056.8,1602.6,9057,1581.9,9056.8z"/>
<path class="st2" d="M1510.6,9481.7v269.7c2.7,3,2.7,7.6,0,10.5v5.6c0.9-0.2,1.8-0.3,2.7-0.3h130.6v-329.3L1510.6,9481.7z"/>
<polygon class="st2" points="1510.5,9222.7 1510.5,9454.6 1643.9,9403.2 1643.9,9222.7 "/>
<rect x="1510.5" y="9813.1" class="st2" width="133.3" height="172.7"/>
<rect x="1510.4" y="10032.5" class="st2" width="133.5" height="54.5"/>
<polygon class="st2" points="1282.1,10139.8 1219.1,10139.9 1219.1,10181 1297.6,10181 "/>
<rect x="977.2" y="10138.7" class="st2" width="134.9" height="42.3"/>
<rect x="1125.6" y="10138.7" class="st2" width="80.1" height="42.3"/>
<path class="st1" d="M1090.4,5588.8h-0.4C1086.4,5588.7,1084.7,5588.7,1090.4,5588.8z"/>
<path class="st1" d="M1092.2,5588.8h-1.8C1110.6,5589,1099.9,5588.9,1092.2,5588.8z"/>
<path class="st1" d="M1571.2,5508.2l2.2-0.2L1571.2,5508.2z"/>
<path class="st1" d="M1038.9,7126.8c0.3,0.5,0.7,1.1,1,1.7C1043.1,7133.4,1045.1,7136.5,1038.9,7126.8z"/>
<path class="st1" d="M1037.9,7125.2c0.4,0.5,0.8,1.1,1.1,1.6C1030.4,7113.5,1033.9,7119,1037.9,7125.2z"/>
<path class="st1" d="M1344.9,6484.8c0-0.4,0-0.8-0.1-1.2C1344.8,6482.3,1344.8,6482.3,1344.9,6484.8z"/>
<rect x="1189.9" y="668.2" class="st2" width="133.5" height="298"/>
<rect x="1350.1" y="668.2" class="st2" width="135.7" height="298"/>
<rect x="1189.9" y="339.5" class="st2" width="133.5" height="278"/>
<rect x="1350.1" y="339.5" class="st2" width="135.7" height="278"/>
<rect x="1512.5" y="339.5" class="st2" width="135.7" height="278"/>
<path class="st2" d="M1736.9,461.3c-17.3,0-17.2-26.8,0-26.8h76.1c14.3-32.2,29.5-64,46.4-95h-184.5v278h60.2
	c2.5-5.7,5-11.4,7.5-17.1c20.1-46.1,38.8-92.9,58.7-139.2L1736.9,461.3L1736.9,461.3z"/>
<path class="st2" d="M1890,339.5c-0.2,0.4-0.4,0.8-0.6,1.1c-13.8,24.4-26.5,49.3-38.4,74.6c-31.3,66.4-57.5,135-86.9,202.2h159.7
	v-278L1890,339.5L1890,339.5z"/>
<rect x="1674.9" class="st2" width="135.7" height="309.3"/>
<rect x="1837.3" class="st2" width="86.5" height="309.3"/>
<path class="st2" d="M977.2,1292.2h185.9V993H978.7c-0.5,0-1,0-1.5-0.1V1292.2L977.2,1292.2z"/>
<path class="st2" d="M1189.9,1292.2v0.1h133.5V993h-133.5V1292.2L1189.9,1292.2z"/>
<path class="st2" d="M977.2,1619.2h346.1v-313.6h-140.3v108.3c0,8.7-13.3,8.5-13.3,0v-108.3H977.2V1619.2L977.2,1619.2z"/>
<rect x="1350.1" y="993" class="st2" width="135.7" height="284.7"/>
<path class="st2" d="M1350.1,1304.3v314.9h133.7v-274.9c0-2.5,0.6-5,2-7.2v-32.9h-135.7V1304.3z"/>
<path class="st2" d="M1163.1,339.5H978.7c-0.5,0-1,0-1.5-0.1v278h185.9V339.5z"/>
<path class="st2" d="M977.2,966.3c0.5,0,0.9-0.1,1.5-0.1h184.4v-298H977.2V966.3z"/>
<rect x="977.2" y="1913" class="st2" width="77.6" height="251.9"/>
<rect x="1081.6" y="1913" class="st2" width="296" height="111.6"/>
<path class="st2" d="M1404.3,2029.9c0,1.6-0.3,3.3-0.8,4.8c1.6,7.6-2.5,16.7-12.5,16.7h-309.3V2165h428.3v-486.6h-105.6
	L1404.3,2029.9L1404.3,2029.9z"/>
<rect x="977.2" y="1678.4" class="st2" width="187.9" height="207.9"/>
<rect x="1191.9" y="1678.4" class="st2" width="185.7" height="207.7"/>
<rect x="1191.1" y="2197" class="st2" width="188.4" height="280.7"/>
<rect x="1406.3" y="2197" class="st2" width="185.7" height="280.7"/>
<rect x="977.2" y="2197" class="st2" width="187.1" height="280.7"/>
<rect x="977.2" y="2504.3" class="st2" width="187.1" height="341.6"/>
<rect x="1191.1" y="2504.3" class="st2" width="188.4" height="341.6"/>
<rect x="977.2" y="2883.1" class="st2" width="183.9" height="147.6"/>
<rect x="977.2" y="3057.5" class="st2" width="183.9" height="253.9"/>
<rect x="1187.9" y="2883.1" class="st2" width="85.5" height="147.6"/>
<rect x="1187.9" y="3057.5" class="st2" width="85.5" height="229.9"/>
<rect x="1300.1" y="3057.5" class="st2" width="79.5" height="229.9"/>
<rect x="1300.1" y="2883.1" class="st2" width="79.5" height="147.6"/>
<rect x="1406.3" y="2883.1" class="st2" width="73.5" height="147.6"/>
<rect x="1406.3" y="3057.5" class="st2" width="73.5" height="229.9"/>
<rect x="1506.5" y="2883.1" class="st2" width="83.5" height="147.6"/>
<rect x="1506.5" y="3057.5" class="st2" width="83.5" height="229.9"/>
<rect x="977.2" y="3349" class="st2" width="187.1" height="280"/>
<rect x="977.2" y="3642.3" class="st2" width="187.1" height="218.5"/>
<rect x="1296.7" y="3648.3" class="st2" width="189.7" height="212.5"/>
<rect x="1191.1" y="3648.3" class="st2" width="78.8" height="212.5"/>
<path class="st2" d="M1486.4,3410.5V3349h-189.7v61.6h189.7L1486.4,3410.5L1486.4,3410.5z"/>
<path class="st2" d="M1486.4,3437.1h-189.7v184.5h189.7L1486.4,3437.1L1486.4,3437.1z"/>
<rect x="1191.1" y="3349" class="st2" width="78.8" height="272.7"/>
<rect x="1299.3" y="3913.5" class="st2" width="185.7" height="260.7"/>
<rect x="1191.1" y="3913.5" class="st2" width="81.5" height="260.7"/>
<rect x="977.2" y="3913.5" class="st2" width="187.1" height="260.7"/>
<path class="st2" d="M1084.9,5850.1c-1.9,1.1-107.7,1.9-107.7,1.9v113.6h201.6l212-210.7c-52,13.2-102.5,31.9-153.3,48.9
	C1188.1,5820.4,1137.3,5845,1084.9,5850.1z"/>
<path class="st2" d="M1404.4,4436.8h32.5v-57.5h-29.9c-0.9,0-1.8-0.2-2.7-0.5L1404.4,4436.8L1404.4,4436.8z"/>
<path class="st2" d="M1136.8,5557.8c16.7-2.9,118.3-40.8,113.7-9.2c42.5-5.3,84.4-11.3,125.7-22.4c-18.4-60.5-35.5-120.1-47.6-182.4
	c-107.7,20.6-241.2,52.6-351.5,55.7v246c67.6-0.8,160.3-6.3,227.2-14.3c-5.9-19.2-11.6-38.4-16.5-58c-31.2,8.5-63.1,15.6-95.7,15.5
	c7.7,0.1,18.4,0.3-1.8,0c-5.8-0.1-4-0.1-0.4,0c-11.1-0.4-15.4-12.9-10.3-21.6C1086.3,5556.2,1125.3,5559.8,1136.8,5557.8z"/>
<path class="st2" d="M1092.2,5588.8h-2.2h0.4H1092.2z"/>
<path class="st2" d="M1402.3,5596.2c-9.2-18.1-15.9-37.6-22-57.1c-24.9,6.8-50.2,12.1-75.7,15.7c-29.6,4.4-59.3,7.9-89.1,11.7
	c5.1,20.5,11.2,40.9,17.3,61.2C1289.7,5620,1346.1,5608.1,1402.3,5596.2z"/>
<path class="st2" d="M977.2,5372.8c46.9-1.3,116.8-8.8,164.2-17.9c-8.8,1.8-12.8,2.6,5-1c59.3-12.1,118.5-24.3,177.9-35.9
	c-15.1-78.1-33.1-153.6-52.7-230.7c-89.5,8.4-208,18.9-294.4,44.3L977.2,5372.8L977.2,5372.8z"/>
<path class="st2" d="M1368.1,5079.6L1368.1,5079.6z"/>
<path class="st2" d="M1333.3,5226.6c28.3-8.8,56.7-17.2,85.3-24.8c-10.1-42-24.7-82.5-38.8-123.1c0,0-54,3.9-80.9,6.3
	C1311.5,5132.6,1325.6,5177.8,1333.3,5226.6z"/>
<path class="st2" d="M1369.9,5079.5l-1.4,0.1L1369.9,5079.5z"/>
<path class="st2" d="M1378.7,5078.9l-2.1,0.1L1378.7,5078.9z"/>
<path class="st2" d="M1379.8,5078.8l-0.9,0.1L1379.8,5078.8z"/>
<path class="st2" d="M1506.3,5377.2C1552.4,5371.7,1460.3,5382.4,1506.3,5377.2L1506.3,5377.2z"/>
<path class="st2" d="M1571.2,5508.2l2.2-0.2C1592.4,5506.3,1541.9,5510.7,1571.2,5508.2z"/>
<path class="st2" d="M1151.6,5805.9c28.4-8.9,56.3-19.9,84.5-29.5c58.7-19.9,117.2-42,178.1-54.1v-101.1l0,0
	c-135.8,28.8-297.9,49.4-437.1,51.2v153C982.7,5825.7,1071,5831.2,1151.6,5805.9z"/>
<path class="st2" d="M1162.1,6181.2v-188.8H977.2v203C1030.5,6191.3,1108.9,6186.3,1162.1,6181.2z"/>
<path class="st2" d="M977.2,6845.1h185.7v-71.6c-0.5-1.6-0.8-3.3-0.8-5.1v-142.5H977.2V6845.1L977.2,6845.1z"/>
<rect x="1188.8" y="6625.9" class="st2" width="81.1" height="120.3"/>
<path class="st2" d="M1344.9,6483.6c0,0.4,0,0.8,0.1,1.2C1346.7,6515.3,1345.2,6488.9,1344.9,6483.6z"/>
<path class="st2" d="M977.2,6599.1h366.7c-1.3-38.1,3.2-76.1,1.1-114.3c-0.1-2.5-0.1-2.5-0.1-1.2c-1-24.6,10.4-45.7,38.6-36.3
	v-260.8c-126.9,12.3-279.2,25.6-406.3,35.6L977.2,6599.1L977.2,6599.1z"/>
<path class="st2" d="M1195.7,6886.4h-150.9c-2.9,7.3-13.3,9.1-16.8,17.1c-4.4,10.3,0,22,4,31.5c0.9-0.3,1.8-0.4,2.7-0.4h154.5
	C1190.5,6918.4,1192.1,6902.3,1195.7,6886.4z"/>
<path class="st2" d="M1044.3,7052.9c15.6,31.9,62.4,31.7,77.7,63.5c29.6-46.5,58.3-104.5,65.1-159.6l0.9-8.9h-150.8
	C1050.7,6982.4,1028.4,7020.4,1044.3,7052.9z"/>
<path class="st2" d="M977.2,7085.3v159.2c36.7-3,60.9-8.2,60.9-16.9c0-0.9,1.7-17.1,1.7-17.1s4-52.1-15.9-81.6
	C1018.2,7120.3,994.9,7100.1,977.2,7085.3z"/>
<path class="st2" d="M1317.1,6890.4v-4h-107.6c-4.1,16.3-5.6,32.9-7.1,49.5c15.5-14.5,33.9-26.3,54.4-32.3
	C1274.5,6898.3,1302.4,6902.9,1317.1,6890.4z"/>
<path class="st2" d="M1037.9,7125.2l2.1,3.3c-0.3-0.6-0.7-1.1-1-1.7S1038.2,7125.7,1037.9,7125.2z"/>
<path class="st2" d="M1108.5,7138.1c1.1-2.2,2.1-4.5,2.8-6.8c4.8-20.1-32.5-32.7-45.7-40.8c-23.5-14.4-38.8-30.7-40.1-59.6
	c-1.3-29.2,8.9-50.9-1.3-80.3c-7.7-22.1-19.5-44.4,0.4-64.3h-47.4v178.9c14,12.2,46.5,39.1,60.6,59.9c-4-6.2-7.4-11.6,1.1,1.6
	c6.2,9.7,4.2,6.6,1,1.7c13.7,22.9,11.4,51.1,10.7,77.5C1065.9,7180,1108.5,7138.1,1108.5,7138.1z"/>
<polygon class="st2" points="997.1,8765 1310.5,8765 1118.3,8572.8 977.2,8649.8 977.2,8744.3 "/>
<polygon class="st2" points="1269.3,9644.2 977.2,9623.3 977.2,9703.7 1269.3,9739.3 "/>
<polygon class="st2" points="1269.3,9752.6 977.2,9717.1 977.2,9784.9 1269.3,9823.5 "/>
<polygon class="st2" points="1269.3,9551.1 977.2,9551.1 977.2,9609.9 1269.3,9630.6 "/>
<path class="st2" d="M1269.3,8838H977.2v337.6h177.7v-239.2c0-8.7,13.3-8.5,13.3,0v239.2h101.1V8838z"/>
<path class="st2" d="M1156.9,9210.5H977.2v180.1l179.7,0.3c-0.1-0.4-0.2-0.9-0.1-1.3v-177.7
	C1156.8,9211.3,1156.8,9210.9,1156.9,9210.5z"/>
<polygon class="st2" points="1269.3,9404.2 977.2,9403.9 977.2,9524.5 1269.3,9524.5 "/>
<path class="st2" d="M1269.3,9210.5h-99.7c0.1,0.4,0.2,0.9,0.1,1.3v177.7c0,0.4,0,0.9-0.1,1.3h99.7V9210.5z"/>
<polygon class="st2" points="1269.3,9850.3 977.2,9812.3 977.2,9895.9 1269.3,9895.9 "/>
<rect x="977.2" y="9909.4" class="st2" width="292.1" height="76.4"/>
<path class="st2" d="M1215.2,10012.5h-238v43.9h238.5c-0.4-1.3-0.6-2.6-0.5-4L1215.2,10012.5L1215.2,10012.5z"/>
<rect x="977.2" y="10069.7" class="st2" width="292.1" height="42.4"/>
<polygon class="st2" points="1296.7,9073 1296.7,9251.9 1453.1,9211.4 1423.2,9071.3 "/>
<path class="st2" d="M1514.9,9176.9l-0.7-3.5L1514.9,9176.9z"/>
<path class="st2" d="M1514.9,9176.9l0.5,2.5L1514.9,9176.9z"/>
<path class="st2" d="M1512.3,9163.1l0.1,0.6L1512.3,9163.1z"/>
<path class="st2" d="M1512.5,9164.2l0.4,2.1L1512.5,9164.2z"/>
<path class="st2" d="M1513.1,9167.2l0.4,2.2L1513.1,9167.2z"/>
<path class="st2" d="M1515.6,9180.6v-0.2V9180.6z"/>
<path class="st2" d="M1450,9068l26.8,132.9c0,0,30.5-16.4,38.8-20.4l-24.5-118.8L1450,9068z"/>
<polygon class="st2" points="1296,9362.7 1483.9,9362.7 1483.9,9227 1296,9278.7 "/>
<polygon class="st2" points="1376.8,9389.5 1296,9389.5 1296,9830.5 1376.8,9798.7 "/>
<polygon class="st2" points="1296,9985.8 1376.8,9985.8 1376.8,9813.3 1296,9844.2 "/>
<polygon class="st2" points="1403.6,9787.9 1483.9,9758.9 1483.9,9389.5 1403.6,9389.5 "/>
<polygon class="st2" points="1403.6,9985.8 1483.9,9985.8 1483.9,9773.1 1403.6,9802.1 "/>
<rect x="1323.3" y="10032.5" class="st2" width="158.4" height="77.1"/>
<polygon class="st2" points="1422.4,10178.1 1481.9,10162.6 1481.9,10128.5 1405.1,10128.5 "/>
</svg>
